<svg xmlns="http://www.w3.org/2000/svg" xmlns:xlink="http://www.w3.org/1999/xlink" width="500" zoomAndPan="magnify" viewBox="0 0 375 374.999991" height="500" preserveAspectRatio="xMidYMid meet" version="1.0"><defs><g/><clipPath id="14689318af"><path d="M 14.382812 15.898438 L 353.382812 15.898438 L 353.382812 354.898438 L 14.382812 354.898438 Z M 14.382812 15.898438 " clip-rule="nonzero"/></clipPath></defs><g fill="#986d42" fill-opacity="1"><g transform="translate(168.051511, 237.5649)"><g><path d="M 76.25 2.265625 C 118.027344 2.011719 141.179688 -30.953125 141.179688 -66.183594 C 141.179688 -103.429688 119.285156 -127.589844 90.09375 -127.589844 C 70.714844 -127.589844 53.351562 -117.773438 39.761719 -107.707031 L 39.761719 -126.078125 L 37.496094 -127.839844 L 10.066406 -115.761719 L 10.066406 -112.992188 C 16.859375 -109.972656 20.132812 -107.457031 20.132812 -89.839844 L 20.132812 35.988281 C 20.132812 56.621094 17.617188 62.410156 10.066406 64.675781 L 10.066406 67.945312 L 49.828125 67.945312 L 49.828125 64.675781 C 42.027344 62.410156 39.761719 56.621094 39.761719 35.988281 L 39.761719 -8.808594 C 49.324219 -2.515625 62.410156 2.265625 76.25 2.265625 Z M 39.761719 -41.523438 L 39.761719 -103.683594 C 50.332031 -111.734375 62.160156 -119.03125 76.753906 -119.03125 C 111.988281 -119.03125 123.058594 -79.523438 123.058594 -51.589844 C 123.058594 -22.398438 110.726562 -2.515625 84.304688 -2.515625 C 61.65625 -2.515625 39.761719 -24.410156 39.761719 -41.523438 Z M 39.761719 -41.523438 "/></g></g></g><g fill="#364037" fill-opacity="1"><g transform="translate(48.317535, 232.669355)"><g><path d="M 64.675781 2.769531 C 82.542969 3.019531 98.144531 -9.058594 110.476562 -21.894531 L 110.476562 -7.550781 C 110.476562 -2.769531 113.246094 0 118.027344 0 L 140.171875 0 L 140.171875 -3.273438 C 132.371094 -5.535156 130.105469 -11.324219 130.105469 -31.960938 L 130.105469 -201.574219 L 128.09375 -203.335938 L 100.410156 -191.257812 L 100.410156 -188.488281 C 107.203125 -185.46875 110.476562 -182.953125 110.476562 -165.335938 L 110.476562 -117.523438 C 101.667969 -123.058594 90.09375 -127.335938 76.25 -127.335938 C 32.96875 -127.085938 9.058594 -94.875 9.058594 -59.894531 C 9.058594 -24.410156 33.46875 2.515625 64.675781 2.769531 Z M 27.933594 -74.992188 C 27.933594 -101.667969 41.773438 -122.554688 68.449219 -122.554688 C 89.589844 -122.554688 108.210938 -104.4375 110.476562 -88.078125 L 110.476562 -26.421875 C 100.660156 -16.359375 89.085938 -9.5625 76 -9.5625 C 41.773438 -9.5625 27.933594 -45.550781 27.933594 -74.992188 Z M 27.933594 -74.992188 "/></g></g></g><g clip-path="url(#14689318af)"><path fill="#000000" d="M 183.882812 15.898438 C 90.363281 15.898438 14.382812 91.878906 14.382812 185.398438 C 14.382812 278.917969 90.363281 354.898438 183.882812 354.898438 C 277.402344 354.898438 353.382812 278.917969 353.382812 185.398438 C 353.382812 91.878906 277.402344 15.898438 183.882812 15.898438 Z M 183.882812 23.269531 C 273.519531 23.269531 346.011719 95.765625 346.011719 185.398438 C 346.011719 275.035156 273.519531 347.53125 183.882812 347.53125 C 94.246094 347.53125 21.753906 275.035156 21.753906 185.398438 C 21.753906 95.765625 94.246094 23.269531 183.882812 23.269531 Z M 183.882812 23.269531 " fill-opacity="1" fill-rule="nonzero"/></g></svg>