<svg xmlns="http://www.w3.org/2000/svg" xmlns:xlink="http://www.w3.org/1999/xlink" width="500" zoomAndPan="magnify" viewBox="0 0 375 374.999991" height="500" preserveAspectRatio="xMidYMid meet" version="1.0"><defs><g/><clipPath id="4f8b290324"><path d="M 30 19 L 344 19 L 344 333 L 30 333 Z M 30 19 " clip-rule="nonzero"/></clipPath><clipPath id="bebcc1d964"><path d="M 191.78125 -46.605469 L 362.890625 132.21875 L 135.296875 349.992188 L -35.8125 171.167969 Z M 191.78125 -46.605469 " clip-rule="nonzero"/></clipPath><clipPath id="b79acd50f7"><path d="M 191.78125 -46.605469 L 409.554688 180.988281 L 181.960938 398.761719 L -35.8125 171.167969 Z M 191.78125 -46.605469 " clip-rule="nonzero"/></clipPath></defs><g clip-path="url(#4f8b290324)"><g clip-path="url(#bebcc1d964)"><g clip-path="url(#b79acd50f7)"><path fill="#000000" d="M 258.679688 311.871094 C 246.09375 318.382812 232.5625 322.894531 218.746094 325.640625 C 207.441406 327.8125 195.964844 328.960938 184.476562 328.90625 C 182.945312 328.941406 181.421875 328.808594 179.894531 328.753906 C 178.367188 328.671875 176.835938 328.636719 175.3125 328.519531 L 170.746094 328.101562 L 168.460938 327.890625 L 166.191406 327.582031 L 161.644531 326.972656 C 160.136719 326.734375 158.636719 326.4375 157.128906 326.175781 C 154.105469 325.707031 151.136719 324.96875 148.140625 324.332031 C 147.710938 324.238281 147.261719 324.136719 146.789062 324.035156 C 146.324219 323.90625 145.84375 323.777344 145.339844 323.640625 C 144.335938 323.363281 143.257812 323.066406 142.109375 322.75 C 139.792969 322.167969 137.273438 321.265625 134.496094 320.347656 C 133.804688 320.109375 133.089844 319.890625 132.375 319.621094 C 131.667969 319.347656 130.945312 319.0625 130.207031 318.773438 C 128.734375 318.195312 127.210938 317.597656 125.636719 316.976562 C 122.570312 315.554688 119.234375 314.203125 115.933594 312.410156 C 102.460938 305.742188 87.984375 295.191406 75.695312 282.457031 C 63.515625 269.621094 53.613281 254.691406 47.546875 240.941406 C 45.898438 237.558594 44.699219 234.167969 43.410156 231.042969 C 42.863281 229.445312 42.332031 227.894531 41.816406 226.398438 C 41.5625 225.648438 41.308594 224.914062 41.0625 224.195312 C 40.828125 223.472656 40.644531 222.746094 40.433594 222.046875 C 39.640625 219.230469 38.851562 216.671875 38.371094 214.335938 C 38.105469 213.171875 37.855469 212.082031 37.625 211.066406 C 37.511719 210.558594 37.398438 210.070312 37.292969 209.601562 C 37.210938 209.125 37.132812 208.671875 37.054688 208.238281 C 34.960938 196.9375 33.890625 185.464844 34.023438 173.972656 C 34.285156 161.738281 36.050781 149.570312 38.859375 137.644531 C 42.210938 123.964844 47.316406 110.640625 54.378906 98.355469 C 61.296875 85.980469 70.242188 74.761719 80.433594 64.839844 C 90.792969 55.09375 102.398438 46.652344 115.0625 40.289062 C 127.648438 33.773438 141.183594 29.261719 155 26.515625 C 166.300781 24.347656 177.777344 23.195312 189.269531 23.25 C 190.796875 23.214844 192.324219 23.347656 193.851562 23.40625 C 195.378906 23.488281 196.90625 23.519531 198.433594 23.636719 L 203 24.058594 L 205.285156 24.265625 L 207.554688 24.578125 L 212.097656 25.1875 C 213.609375 25.421875 215.109375 25.71875 216.617188 25.980469 C 219.640625 26.449219 222.609375 27.1875 225.601562 27.828125 C 226.03125 27.921875 226.484375 28.019531 226.953125 28.121094 C 227.417969 28.25 227.902344 28.382812 228.40625 28.519531 C 229.40625 28.792969 230.488281 29.089844 231.636719 29.410156 C 233.953125 29.992188 236.472656 30.894531 239.25 31.808594 C 239.941406 32.046875 240.65625 32.265625 241.367188 32.535156 C 242.078125 32.8125 242.800781 33.09375 243.539062 33.382812 C 245.007812 33.960938 246.535156 34.5625 248.109375 35.179688 C 251.171875 36.601562 254.507812 37.953125 257.8125 39.746094 C 271.28125 46.414062 285.761719 56.964844 298.046875 69.699219 C 310.230469 82.535156 320.132812 97.46875 326.199219 111.21875 C 327.84375 114.597656 329.046875 117.988281 330.332031 121.113281 C 330.882812 122.714844 331.414062 124.261719 331.925781 125.757812 C 332.183594 126.507812 332.433594 127.242188 332.679688 127.964844 C 332.917969 128.6875 333.101562 129.410156 333.308594 130.113281 C 334.101562 132.925781 334.894531 135.484375 335.375 137.820312 C 335.636719 138.984375 335.886719 140.078125 336.121094 141.089844 C 336.234375 141.597656 336.34375 142.085938 336.449219 142.558594 C 336.535156 143.03125 336.613281 143.488281 336.6875 143.917969 C 338.78125 155.222656 339.855469 166.695312 339.722656 178.183594 C 339.460938 190.417969 337.691406 202.585938 334.882812 214.511719 C 331.53125 228.195312 326.425781 241.519531 319.363281 253.804688 C 312.449219 266.175781 303.503906 277.398438 293.3125 287.316406 C 282.949219 297.0625 271.34375 305.503906 258.679688 311.871094 Z M 295.832031 289.804688 L 295.839844 289.792969 C 306.246094 279.660156 315.394531 268.203125 322.480469 255.566406 C 329.707031 243.019531 334.929688 229.394531 338.3125 215.40625 L 339.789062 208.824219 C 339.789062 208.824219 340.132812 207 340.648438 204.265625 C 341.242188 201.542969 341.648438 197.847656 342.191406 194.179688 C 342.503906 190.480469 342.949219 186.796875 342.992188 184.011719 C 343.117188 181.234375 343.195312 179.382812 343.195312 179.382812 C 343.195312 179.382812 343.210938 178.917969 343.210938 178.109375 C 343.214844 177.296875 343.222656 176.136719 343.230469 174.746094 C 343.316406 171.964844 343.089844 168.261719 342.941406 164.558594 C 342.8125 162.707031 342.617188 160.863281 342.46875 159.132812 C 342.390625 158.265625 342.3125 157.429688 342.242188 156.636719 C 342.132812 155.847656 342.027344 155.101562 341.929688 154.410156 C 341.546875 151.65625 341.292969 149.820312 341.292969 149.820312 C 341.292969 149.820312 341.257812 149.398438 341.140625 148.78125 C 341.03125 148.15625 340.882812 147.328125 340.742188 146.5 C 340.449219 144.84375 340.160156 143.183594 340.160156 143.183594 C 340.082031 142.738281 340.003906 142.273438 339.917969 141.789062 C 339.8125 141.308594 339.703125 140.808594 339.585938 140.285156 C 339.351562 139.246094 339.097656 138.128906 338.828125 136.941406 C 338.339844 134.546875 337.539062 131.925781 336.730469 129.046875 C 336.519531 128.328125 336.328125 127.585938 336.085938 126.84375 C 335.835938 126.105469 335.582031 125.355469 335.320312 124.589844 C 334.796875 123.054688 334.253906 121.46875 333.695312 119.832031 C 332.382812 116.628906 331.148438 113.160156 329.46875 109.699219 C 323.269531 95.621094 313.136719 80.324219 300.667969 67.191406 C 288.101562 54.160156 273.265625 43.363281 259.472656 36.546875 C 256.089844 34.714844 252.675781 33.332031 249.535156 31.878906 C 247.925781 31.246094 246.363281 30.636719 244.855469 30.046875 C 244.101562 29.75 243.359375 29.460938 242.636719 29.179688 C 241.90625 28.90625 241.171875 28.683594 240.464844 28.441406 C 237.621094 27.503906 235.042969 26.585938 232.671875 25.996094 C 231.496094 25.671875 230.390625 25.371094 229.359375 25.089844 C 228.847656 24.953125 228.351562 24.820312 227.875 24.691406 C 227.394531 24.585938 226.933594 24.488281 226.492188 24.390625 C 226.492188 24.390625 224.847656 24.027344 223.203125 23.664062 C 222.382812 23.484375 221.5625 23.300781 220.945312 23.164062 C 220.332031 23.019531 219.914062 22.96875 219.914062 22.96875 C 219.914062 22.96875 218.089844 22.628906 215.355469 22.125 C 214.667969 22 213.929688 21.863281 213.144531 21.71875 C 212.355469 21.609375 211.523438 21.496094 210.664062 21.378906 C 208.9375 21.152344 207.105469 20.878906 205.261719 20.667969 C 201.566406 20.359375 197.878906 19.96875 195.09375 19.933594 C 193.707031 19.878906 192.546875 19.832031 191.738281 19.800781 C 190.925781 19.765625 190.464844 19.761719 190.464844 19.761719 C 190.464844 19.761719 188.609375 19.761719 185.828125 19.757812 C 183.046875 19.679688 179.34375 19.964844 175.636719 20.113281 C 171.945312 20.492188 168.238281 20.738281 165.492188 21.207031 C 162.734375 21.605469 160.898438 21.867188 160.898438 21.867188 L 154.261719 23.050781 C 140.136719 25.8125 126.292969 30.433594 113.441406 37.101562 C 100.503906 43.621094 88.652344 52.257812 78.070312 62.203125 L 78.0625 62.210938 L 77.984375 62.28125 L 77.910156 62.355469 L 77.902344 62.367188 C 67.5 72.5 58.351562 83.957031 51.265625 96.589844 C 44.035156 109.140625 38.8125 122.761719 35.429688 136.753906 L 33.957031 143.332031 C 33.957031 143.332031 33.613281 145.15625 33.09375 147.890625 C 32.503906 150.617188 32.09375 154.308594 31.554688 157.980469 C 31.242188 161.675781 30.796875 165.359375 30.75 168.144531 C 30.628906 170.921875 30.546875 172.777344 30.546875 172.777344 C 30.546875 172.777344 30.535156 173.238281 30.53125 174.050781 C 30.527344 174.859375 30.519531 176.019531 30.515625 177.410156 C 30.429688 180.195312 30.65625 183.894531 30.800781 187.601562 C 30.929688 189.449219 31.125 191.292969 31.273438 193.027344 C 31.355469 193.890625 31.429688 194.726562 31.503906 195.523438 C 31.613281 196.3125 31.71875 197.058594 31.8125 197.746094 C 32.195312 200.5 32.453125 202.335938 32.453125 202.335938 C 32.453125 202.335938 32.484375 202.757812 32.605469 203.378906 C 32.714844 204 32.859375 204.828125 33.003906 205.65625 C 33.292969 207.316406 33.585938 208.976562 33.585938 208.976562 C 33.660156 209.417969 33.742188 209.882812 33.824219 210.371094 C 33.929688 210.851562 34.042969 211.351562 34.160156 211.871094 C 34.394531 212.910156 34.648438 214.027344 34.914062 215.21875 C 35.402344 217.613281 36.207031 220.230469 37.015625 223.113281 C 37.226562 223.832031 37.417969 224.570312 37.65625 225.3125 C 37.90625 226.050781 38.164062 226.804688 38.421875 227.570312 C 38.945312 229.101562 39.492188 230.6875 40.050781 232.328125 C 41.363281 235.527344 42.59375 238.996094 44.273438 242.460938 C 50.476562 256.539062 60.609375 271.832031 73.074219 284.964844 C 85.644531 298 100.476562 308.796875 114.269531 315.613281 C 117.652344 317.441406 121.066406 318.828125 124.207031 320.277344 C 125.820312 320.910156 127.378906 321.523438 128.886719 322.113281 C 129.640625 322.40625 130.382812 322.695312 131.109375 322.980469 C 131.839844 323.253906 132.570312 323.476562 133.277344 323.71875 C 136.121094 324.652344 138.703125 325.570312 141.074219 326.164062 C 142.25 326.484375 143.355469 326.785156 144.382812 327.066406 C 144.898438 327.207031 145.394531 327.339844 145.867188 327.464844 C 146.351562 327.570312 146.8125 327.671875 147.25 327.765625 C 147.25 327.765625 148.894531 328.128906 150.539062 328.492188 C 151.363281 328.675781 152.183594 328.855469 152.800781 328.992188 C 153.414062 329.136719 153.832031 329.191406 153.832031 329.191406 C 153.832031 329.191406 155.652344 329.527344 158.390625 330.03125 C 159.074219 330.160156 159.816406 330.296875 160.597656 330.441406 C 161.386719 330.546875 162.21875 330.660156 163.082031 330.777344 C 164.804688 331.003906 166.640625 331.277344 168.480469 331.488281 C 172.175781 331.796875 175.863281 332.1875 178.648438 332.226562 C 180.039062 332.28125 181.195312 332.324219 182.007812 332.355469 C 182.816406 332.390625 183.28125 332.394531 183.28125 332.394531 C 183.28125 332.394531 185.132812 332.398438 187.914062 332.398438 C 190.699219 332.476562 194.398438 332.191406 198.105469 332.042969 C 201.796875 331.664062 205.507812 331.421875 208.253906 330.949219 C 211.007812 330.554688 212.847656 330.289062 212.847656 330.289062 L 219.484375 329.105469 C 233.609375 326.34375 247.449219 321.726562 260.304688 315.058594 C 273.242188 308.535156 285.089844 299.902344 295.671875 289.953125 L 295.683594 289.949219 L 295.757812 289.875 L 295.832031 289.804688 " fill-opacity="1" fill-rule="nonzero"/></g></g></g><g fill="#000000" fill-opacity="1"><g transform="translate(199.913877, 333.43194)"><g><path d="M 1.859375 -0.328125 L -1.328125 -18.15625 L 5.140625 -19.328125 C 6.597656 -19.585938 7.914062 -19.578125 9.09375 -19.296875 C 10.28125 -19.015625 11.3125 -18.539062 12.1875 -17.875 C 13.0625 -17.21875 13.78125 -16.378906 14.34375 -15.359375 C 14.914062 -14.335938 15.3125 -13.21875 15.53125 -12 C 15.769531 -10.644531 15.78125 -9.378906 15.5625 -8.203125 C 15.351562 -7.035156 14.929688 -5.992188 14.296875 -5.078125 C 13.660156 -4.171875 12.835938 -3.40625 11.828125 -2.78125 C 10.828125 -2.164062 9.660156 -1.738281 8.328125 -1.5 Z M 12.03125 -11.375 C 11.875 -12.226562 11.613281 -12.992188 11.25 -13.671875 C 10.882812 -14.347656 10.425781 -14.90625 9.875 -15.34375 C 9.332031 -15.789062 8.707031 -16.09375 8 -16.25 C 7.289062 -16.414062 6.519531 -16.425781 5.6875 -16.28125 L 2.6875 -15.734375 L 4.78125 -3.984375 L 7.78125 -4.53125 C 8.632812 -4.675781 9.363281 -4.957031 9.96875 -5.375 C 10.582031 -5.800781 11.0625 -6.316406 11.40625 -6.921875 C 11.757812 -7.523438 11.988281 -8.207031 12.09375 -8.96875 C 12.195312 -9.726562 12.175781 -10.53125 12.03125 -11.375 Z M 12.03125 -11.375 "/></g></g></g><g fill="#000000" fill-opacity="1"><g transform="translate(229.367304, 327.019649)"><g><path d="M 0.265625 -19.421875 L 3.1875 -20.515625 L 15.953125 -5.953125 L 12.5625 -4.6875 L 9.421875 -8.328125 L 3.484375 -6.125 L 3.515625 -1.3125 L 0.109375 -0.046875 Z M 7.953125 -10.421875 L 3.125 -16.203125 L 3.1875 -8.640625 Z M 7.953125 -10.421875 "/></g></g></g><g fill="#000000" fill-opacity="1"><g transform="translate(256.091368, 315.903748)"><g><path d="M 5.734375 -20.75 L 0.75 -17.828125 L 8.328125 -4.859375 L 5.296875 -3.09375 L -2.28125 -16.0625 L -7.265625 -13.15625 L -8.828125 -15.828125 L 4.171875 -23.421875 Z M 5.734375 -20.75 "/></g></g></g><g fill="#000000" fill-opacity="1"><g transform="translate(279.367323, 301.156521)"><g><path d="M 2.203125 -21.40625 L -2.234375 -17.703125 L 7.390625 -6.1875 L 4.703125 -3.9375 L -4.921875 -15.453125 L -9.34375 -11.75 L -11.328125 -14.125 L 0.21875 -23.78125 Z M 2.203125 -21.40625 "/></g></g></g><g fill="#000000" fill-opacity="1"><g transform="translate(299.997065, 282.718759)"><g><path d="M 3.8125 -9.21875 C 4.34375 -9.851562 4.664062 -10.5 4.78125 -11.15625 C 4.894531 -11.820312 4.851562 -12.460938 4.65625 -13.078125 C 4.457031 -13.703125 4.128906 -14.289062 3.671875 -14.84375 C 3.222656 -15.40625 2.710938 -15.925781 2.140625 -16.40625 L -4.9375 -22.328125 L -2.6875 -25.015625 L 4.390625 -19.09375 C 5.335938 -18.300781 6.132812 -17.441406 6.78125 -16.515625 C 7.425781 -15.585938 7.859375 -14.613281 8.078125 -13.59375 C 8.296875 -12.582031 8.265625 -11.539062 7.984375 -10.46875 C 7.703125 -9.394531 7.113281 -8.328125 6.21875 -7.265625 C 5.289062 -6.148438 4.3125 -5.363281 3.28125 -4.90625 C 2.25 -4.445312 1.210938 -4.238281 0.171875 -4.28125 C -0.859375 -4.332031 -1.878906 -4.597656 -2.890625 -5.078125 C -3.898438 -5.566406 -4.859375 -6.1875 -5.765625 -6.9375 L -12.84375 -12.859375 L -10.578125 -15.5625 L -3.5 -9.640625 C -2.90625 -9.148438 -2.289062 -8.734375 -1.65625 -8.390625 C -1.03125 -8.046875 -0.398438 -7.832031 0.234375 -7.75 C 0.867188 -7.675781 1.492188 -7.742188 2.109375 -7.953125 C 2.722656 -8.171875 3.289062 -8.59375 3.8125 -9.21875 Z M 3.8125 -9.21875 "/></g></g></g><g fill="#000000" fill-opacity="1"><g transform="translate(318.621416, 258.360987)"><g><path d="M 0.78125 -1.265625 L -2.34375 -3.1875 L -0.890625 -5.578125 L 2.234375 -3.65625 Z M 0.78125 -1.265625 "/></g></g></g><g fill="#000000" fill-opacity="1"><g transform="translate(327.3151, 243.428688)"><g><path d="M -8.109375 -4.390625 C -9.128906 -4.828125 -10.050781 -5.441406 -10.875 -6.234375 C -11.695312 -7.023438 -12.347656 -7.941406 -12.828125 -8.984375 C -13.304688 -10.023438 -13.566406 -11.15625 -13.609375 -12.375 C -13.648438 -13.601562 -13.390625 -14.867188 -12.828125 -16.171875 C -12.171875 -17.691406 -11.265625 -18.863281 -10.109375 -19.6875 C -8.953125 -20.507812 -7.71875 -20.957031 -6.40625 -21.03125 L -5.765625 -17.828125 C -6.328125 -17.796875 -6.835938 -17.695312 -7.296875 -17.53125 C -7.753906 -17.363281 -8.15625 -17.140625 -8.5 -16.859375 C -8.84375 -16.585938 -9.140625 -16.273438 -9.390625 -15.921875 C -9.648438 -15.566406 -9.859375 -15.203125 -10.015625 -14.828125 C -10.367188 -14.015625 -10.515625 -13.238281 -10.453125 -12.5 C -10.390625 -11.757812 -10.179688 -11.078125 -9.828125 -10.453125 C -9.472656 -9.828125 -9.007812 -9.269531 -8.4375 -8.78125 C -7.863281 -8.289062 -7.25 -7.898438 -6.59375 -7.609375 C -5.851562 -7.296875 -5.09375 -7.109375 -4.3125 -7.046875 C -3.53125 -6.984375 -2.789062 -7.054688 -2.09375 -7.265625 C -1.40625 -7.472656 -0.769531 -7.804688 -0.1875 -8.265625 C 0.382812 -8.722656 0.832031 -9.316406 1.15625 -10.046875 C 1.3125 -10.421875 1.425781 -10.832031 1.5 -11.28125 C 1.582031 -11.726562 1.601562 -12.175781 1.5625 -12.625 C 1.519531 -13.070312 1.40625 -13.523438 1.21875 -13.984375 C 1.039062 -14.441406 0.757812 -14.859375 0.375 -15.234375 L 3.0625 -17.21875 C 3.570312 -16.675781 3.957031 -16.054688 4.21875 -15.359375 C 4.476562 -14.671875 4.632812 -13.941406 4.6875 -13.171875 C 4.75 -12.410156 4.710938 -11.644531 4.578125 -10.875 C 4.453125 -10.101562 4.242188 -9.378906 3.953125 -8.703125 C 3.429688 -7.523438 2.707031 -6.550781 1.78125 -5.78125 C 0.851562 -5.019531 -0.160156 -4.457031 -1.265625 -4.09375 C -2.378906 -3.738281 -3.535156 -3.582031 -4.734375 -3.625 C -5.929688 -3.675781 -7.054688 -3.929688 -8.109375 -4.390625 Z M -8.109375 -4.390625 "/></g></g></g><g fill="#000000" fill-opacity="1"><g transform="translate(338.019229, 216.093356)"><g><path d="M -16 -11.015625 L -15.28125 -14.0625 L 3.921875 -16.578125 L 3.09375 -13.046875 L -1.6875 -12.46875 L -3.140625 -6.3125 L 0.859375 -3.65625 L 0.03125 -0.125 Z M -4.25 -12.40625 L -11.734375 -11.609375 L -5.421875 -7.453125 Z M -4.25 -12.40625 "/></g></g></g><g fill="#986d42" fill-opacity="1"><g transform="translate(168.051511, 237.5649)"><g><path d="M 76.25 2.265625 C 118.027344 2.011719 141.179688 -30.953125 141.179688 -66.183594 C 141.179688 -103.429688 119.285156 -127.589844 90.09375 -127.589844 C 70.714844 -127.589844 53.351562 -117.773438 39.761719 -107.707031 L 39.761719 -126.078125 L 37.496094 -127.839844 L 10.066406 -115.761719 L 10.066406 -112.992188 C 16.859375 -109.972656 20.132812 -107.457031 20.132812 -89.839844 L 20.132812 35.988281 C 20.132812 56.621094 17.617188 62.410156 10.066406 64.675781 L 10.066406 67.945312 L 49.828125 67.945312 L 49.828125 64.675781 C 42.027344 62.410156 39.761719 56.621094 39.761719 35.988281 L 39.761719 -8.808594 C 49.324219 -2.515625 62.410156 2.265625 76.25 2.265625 Z M 39.761719 -41.523438 L 39.761719 -103.683594 C 50.332031 -111.734375 62.160156 -119.03125 76.753906 -119.03125 C 111.988281 -119.03125 123.058594 -79.523438 123.058594 -51.589844 C 123.058594 -22.398438 110.726562 -2.515625 84.304688 -2.515625 C 61.65625 -2.515625 39.761719 -24.410156 39.761719 -41.523438 Z M 39.761719 -41.523438 "/></g></g></g><g fill="#364037" fill-opacity="1"><g transform="translate(48.317535, 232.669355)"><g><path d="M 64.675781 2.769531 C 82.542969 3.019531 98.144531 -9.058594 110.476562 -21.894531 L 110.476562 -7.550781 C 110.476562 -2.769531 113.246094 0 118.027344 0 L 140.171875 0 L 140.171875 -3.273438 C 132.371094 -5.535156 130.105469 -11.324219 130.105469 -31.960938 L 130.105469 -201.574219 L 128.09375 -203.335938 L 100.410156 -191.257812 L 100.410156 -188.488281 C 107.203125 -185.46875 110.476562 -182.953125 110.476562 -165.335938 L 110.476562 -117.523438 C 101.667969 -123.058594 90.09375 -127.335938 76.25 -127.335938 C 32.96875 -127.085938 9.058594 -94.875 9.058594 -59.894531 C 9.058594 -24.410156 33.46875 2.515625 64.675781 2.769531 Z M 27.933594 -74.992188 C 27.933594 -101.667969 41.773438 -122.554688 68.449219 -122.554688 C 89.589844 -122.554688 108.210938 -104.4375 110.476562 -88.078125 L 110.476562 -26.421875 C 100.660156 -16.359375 89.085938 -9.5625 76 -9.5625 C 41.773438 -9.5625 27.933594 -45.550781 27.933594 -74.992188 Z M 27.933594 -74.992188 "/></g></g></g></svg>