<svg xmlns="http://www.w3.org/2000/svg" xmlns:xlink="http://www.w3.org/1999/xlink" width="500" zoomAndPan="magnify" viewBox="0 0 375 374.999991" height="500" preserveAspectRatio="xMidYMid meet" version="1.0"><defs><g/><clipPath id="a068876de4"><path d="M 23 29 L 346 29 L 346 352 L 23 352 Z M 23 29 " clip-rule="nonzero"/></clipPath><clipPath id="12c9c2cc1d"><path d="M 189.265625 -38.625 L 365.558594 145.621094 L 131.457031 369.613281 L -44.835938 185.371094 Z M 189.265625 -38.625 " clip-rule="nonzero"/></clipPath><clipPath id="3128c10966"><path d="M 189.265625 -38.625 L 413.261719 195.472656 L 179.160156 419.46875 L -44.835938 185.371094 Z M 189.265625 -38.625 " clip-rule="nonzero"/></clipPath></defs><g clip-path="url(#a068876de4)"><g clip-path="url(#12c9c2cc1d)"><g clip-path="url(#3128c10966)"><path fill="#000000" d="M 258.074219 330.09375 C 245.128906 336.792969 231.207031 341.433594 216.996094 344.257812 C 205.371094 346.488281 193.566406 347.671875 181.75 347.617188 C 180.175781 347.652344 178.605469 347.515625 177.035156 347.457031 C 175.464844 347.375 173.890625 347.339844 172.324219 347.21875 L 167.625 346.789062 L 165.277344 346.574219 L 162.941406 346.253906 L 158.265625 345.625 C 156.710938 345.382812 155.167969 345.078125 153.621094 344.808594 C 150.507812 344.324219 147.453125 343.566406 144.375 342.910156 C 143.933594 342.8125 143.46875 342.710938 142.984375 342.605469 C 142.507812 342.476562 142.011719 342.339844 141.492188 342.199219 C 140.460938 341.914062 139.351562 341.609375 138.167969 341.28125 C 135.785156 340.683594 133.195312 339.757812 130.339844 338.8125 C 129.628906 338.566406 128.894531 338.34375 128.160156 338.066406 C 127.429688 337.78125 126.6875 337.492188 125.929688 337.195312 C 124.414062 336.601562 122.84375 335.984375 121.226562 335.347656 C 118.074219 333.882812 114.644531 332.496094 111.246094 330.648438 C 97.390625 323.792969 82.5 312.941406 69.859375 299.839844 C 57.332031 286.636719 47.144531 271.277344 40.90625 257.136719 C 39.210938 253.660156 37.976562 250.171875 36.652344 246.957031 C 36.089844 245.3125 35.542969 243.71875 35.011719 242.179688 C 34.75 241.410156 34.492188 240.652344 34.238281 239.914062 C 33.996094 239.167969 33.804688 238.421875 33.589844 237.703125 C 32.773438 234.808594 31.960938 232.175781 31.46875 229.773438 C 31.195312 228.578125 30.941406 227.453125 30.703125 226.410156 C 30.582031 225.886719 30.46875 225.386719 30.359375 224.902344 C 30.277344 224.414062 30.195312 223.945312 30.117188 223.5 C 27.960938 211.875 26.859375 200.074219 26.996094 188.257812 C 27.265625 175.671875 29.082031 163.15625 31.972656 150.890625 C 35.417969 136.816406 40.671875 123.113281 47.933594 110.476562 C 55.046875 97.75 64.25 86.210938 74.730469 76.003906 C 85.390625 65.980469 97.328125 57.296875 110.351562 50.75 C 123.296875 44.050781 137.21875 39.410156 151.429688 36.585938 C 163.054688 34.355469 174.859375 33.171875 186.675781 33.226562 C 188.25 33.191406 189.820312 33.328125 191.390625 33.386719 C 192.960938 33.46875 194.535156 33.503906 196.101562 33.625 L 200.800781 34.058594 L 203.148438 34.269531 L 205.484375 34.59375 L 210.160156 35.21875 C 211.714844 35.460938 213.257812 35.769531 214.804688 36.035156 C 217.917969 36.519531 220.972656 37.277344 224.050781 37.933594 C 224.492188 38.03125 224.957031 38.132812 225.441406 38.238281 C 225.917969 38.371094 226.414062 38.503906 226.933594 38.644531 C 227.964844 38.929688 229.074219 39.234375 230.257812 39.5625 C 232.640625 40.160156 235.230469 41.089844 238.085938 42.03125 C 238.796875 42.277344 239.53125 42.5 240.265625 42.777344 C 240.996094 43.0625 241.738281 43.351562 242.496094 43.648438 C 244.011719 44.246094 245.582031 44.863281 247.199219 45.496094 C 250.351562 46.960938 253.78125 48.351562 257.179688 50.195312 C 271.035156 57.050781 285.925781 67.90625 298.566406 81.003906 C 311.09375 94.207031 321.28125 109.566406 327.519531 123.707031 C 329.214844 127.183594 330.449219 130.671875 331.773438 133.886719 C 332.335938 135.53125 332.882812 137.125 333.410156 138.664062 C 333.675781 139.433594 333.933594 140.191406 334.1875 140.933594 C 334.429688 141.675781 334.621094 142.421875 334.835938 143.140625 C 335.652344 146.035156 336.464844 148.667969 336.957031 151.070312 C 337.230469 152.269531 337.484375 153.390625 337.722656 154.433594 C 337.84375 154.957031 337.957031 155.460938 338.066406 155.941406 C 338.148438 156.429688 338.230469 156.898438 338.308594 157.34375 C 340.464844 168.96875 341.566406 180.769531 341.429688 192.585938 C 341.160156 205.171875 339.34375 217.6875 336.453125 229.953125 C 333.007812 244.027344 327.753906 257.730469 320.492188 270.367188 C 313.378906 283.09375 304.175781 294.632812 293.691406 304.839844 C 283.035156 314.863281 271.097656 323.546875 258.074219 330.09375 Z M 296.285156 307.394531 L 296.292969 307.382812 C 306.996094 296.960938 316.40625 285.179688 323.695312 272.179688 C 331.128906 259.273438 336.5 245.261719 339.980469 230.871094 L 341.496094 224.105469 C 341.496094 224.105469 341.851562 222.226562 342.382812 219.414062 C 342.992188 216.613281 343.414062 212.816406 343.96875 209.039062 C 344.289062 205.238281 344.75 201.445312 344.796875 198.582031 C 344.921875 195.722656 345.003906 193.820312 345.003906 193.820312 C 345.003906 193.820312 345.019531 193.34375 345.019531 192.507812 C 345.023438 191.675781 345.03125 190.484375 345.039062 189.054688 C 345.125 186.191406 344.894531 182.382812 344.742188 178.570312 C 344.609375 176.667969 344.410156 174.773438 344.257812 172.992188 C 344.175781 172.101562 344.097656 171.238281 344.019531 170.421875 C 343.910156 169.613281 343.800781 168.84375 343.703125 168.136719 C 343.308594 165.300781 343.042969 163.414062 343.042969 163.414062 C 343.042969 163.414062 343.011719 162.980469 342.886719 162.34375 C 342.773438 161.703125 342.625 160.851562 342.476562 160 C 342.179688 158.292969 341.878906 156.585938 341.878906 156.585938 C 341.800781 156.128906 341.71875 155.652344 341.632812 155.152344 C 341.523438 154.65625 341.410156 154.140625 341.289062 153.609375 C 341.046875 152.539062 340.789062 151.386719 340.511719 150.164062 C 340.007812 147.703125 339.183594 145.007812 338.351562 142.046875 C 338.136719 141.304688 337.9375 140.542969 337.691406 139.78125 C 337.433594 139.023438 337.171875 138.246094 336.902344 137.460938 C 336.363281 135.882812 335.804688 134.25 335.230469 132.566406 C 333.878906 129.273438 332.613281 125.707031 330.886719 122.144531 C 324.507812 107.664062 314.085938 91.929688 301.261719 78.425781 C 288.332031 65.019531 273.074219 53.914062 258.886719 46.902344 C 255.410156 45.019531 251.898438 43.597656 248.667969 42.101562 C 247.011719 41.453125 245.40625 40.824219 243.855469 40.214844 C 243.078125 39.914062 242.316406 39.617188 241.570312 39.324219 C 240.820312 39.042969 240.066406 38.8125 239.335938 38.566406 C 236.414062 37.601562 233.757812 36.660156 231.320312 36.050781 C 230.109375 35.71875 228.972656 35.410156 227.914062 35.121094 C 227.386719 34.976562 226.875 34.839844 226.390625 34.710938 C 225.890625 34.601562 225.417969 34.5 224.964844 34.398438 C 224.964844 34.398438 223.273438 34.027344 221.582031 33.652344 C 220.738281 33.464844 219.894531 33.28125 219.257812 33.140625 C 218.628906 32.988281 218.199219 32.9375 218.199219 32.9375 C 218.199219 32.9375 216.324219 32.589844 213.507812 32.070312 C 212.804688 31.941406 212.042969 31.800781 211.238281 31.652344 C 210.425781 31.539062 209.570312 31.421875 208.683594 31.304688 C 206.910156 31.070312 205.023438 30.789062 203.128906 30.570312 C 199.328125 30.253906 195.535156 29.851562 192.671875 29.816406 C 191.242188 29.757812 190.050781 29.710938 189.21875 29.679688 C 188.382812 29.644531 187.90625 29.640625 187.90625 29.640625 C 187.90625 29.640625 186 29.636719 183.140625 29.636719 C 180.277344 29.554688 176.46875 29.847656 172.65625 30 C 168.859375 30.390625 165.046875 30.640625 162.222656 31.128906 C 159.386719 31.535156 157.496094 31.804688 157.496094 31.804688 L 150.671875 33.023438 C 136.140625 35.863281 121.90625 40.613281 108.683594 47.472656 C 95.375 54.179688 83.1875 63.0625 72.304688 73.292969 L 72.292969 73.300781 L 72.214844 73.375 L 72.140625 73.449219 L 72.132812 73.460938 C 61.429688 83.882812 52.019531 95.667969 44.730469 108.664062 C 37.296875 121.570312 31.925781 135.582031 28.445312 149.972656 L 26.929688 156.738281 C 26.929688 156.738281 26.574219 158.617188 26.042969 161.429688 C 25.433594 164.230469 25.011719 168.03125 24.457031 171.804688 C 24.136719 175.609375 23.675781 179.398438 23.628906 182.261719 C 23.507812 185.121094 23.421875 187.023438 23.421875 187.023438 C 23.421875 187.023438 23.40625 187.5 23.40625 188.335938 C 23.402344 189.167969 23.394531 190.363281 23.386719 191.792969 C 23.300781 194.65625 23.53125 198.460938 23.683594 202.273438 C 23.816406 204.175781 24.015625 206.070312 24.167969 207.855469 C 24.25 208.746094 24.328125 209.605469 24.40625 210.421875 C 24.515625 211.234375 24.625 212 24.722656 212.707031 C 25.117188 215.542969 25.382812 217.429688 25.382812 217.429688 C 25.382812 217.429688 25.414062 217.863281 25.539062 218.5 C 25.652344 219.140625 25.800781 219.992188 25.949219 220.84375 C 26.246094 222.550781 26.546875 224.257812 26.546875 224.257812 C 26.625 224.714844 26.707031 225.195312 26.792969 225.691406 C 26.902344 226.1875 27.015625 226.703125 27.136719 227.238281 C 27.378906 228.308594 27.636719 229.457031 27.914062 230.679688 C 28.417969 233.140625 29.242188 235.835938 30.074219 238.800781 C 30.289062 239.539062 30.488281 240.300781 30.734375 241.0625 C 30.992188 241.820312 31.253906 242.597656 31.523438 243.382812 C 32.0625 244.960938 32.621094 246.59375 33.195312 248.277344 C 34.546875 251.570312 35.8125 255.136719 37.539062 258.699219 C 43.917969 273.179688 54.34375 288.914062 67.164062 302.421875 C 80.09375 315.824219 95.351562 326.929688 109.539062 333.941406 C 113.015625 335.824219 116.527344 337.25 119.757812 338.742188 C 121.414062 339.390625 123.019531 340.019531 124.570312 340.628906 C 125.347656 340.929688 126.109375 341.226562 126.855469 341.519531 C 127.605469 341.800781 128.359375 342.03125 129.089844 342.277344 C 132.011719 343.242188 134.667969 344.183594 137.105469 344.796875 C 138.316406 345.125 139.453125 345.433594 140.511719 345.722656 C 141.039062 345.867188 141.550781 346.003906 142.035156 346.136719 C 142.535156 346.242188 143.007812 346.347656 143.460938 346.445312 C 143.460938 346.445312 145.152344 346.816406 146.84375 347.191406 C 147.6875 347.378906 148.53125 347.566406 149.167969 347.703125 C 149.796875 347.855469 150.226562 347.910156 150.226562 347.910156 C 150.226562 347.910156 152.101562 348.253906 154.917969 348.773438 C 155.621094 348.902344 156.382812 349.046875 157.1875 349.191406 C 158 349.304688 158.855469 349.421875 159.742188 349.542969 C 161.515625 349.773438 163.402344 350.054688 165.296875 350.273438 C 169.097656 350.589844 172.890625 350.992188 175.753906 351.03125 C 177.183594 351.085938 178.375 351.132812 179.207031 351.164062 C 180.042969 351.199219 180.519531 351.207031 180.519531 351.207031 C 180.519531 351.207031 182.425781 351.207031 185.285156 351.207031 C 188.148438 351.289062 191.957031 350.996094 195.769531 350.84375 C 199.566406 350.453125 203.378906 350.203125 206.203125 349.71875 C 209.039062 349.308594 210.929688 349.039062 210.929688 349.039062 L 217.753906 347.824219 C 232.285156 344.980469 246.519531 340.230469 259.742188 333.371094 C 273.050781 326.664062 285.238281 317.78125 296.121094 307.550781 L 296.132812 307.542969 L 296.210938 307.472656 L 296.285156 307.394531 " fill-opacity="1" fill-rule="nonzero"/></g></g></g><g fill="#000000" fill-opacity="1"><g transform="translate(204.650758, 361.8518)"><g><path d="M 1.921875 -0.34375 L -1.390625 -18.8125 L 5.328125 -20.015625 C 6.835938 -20.285156 8.203125 -20.28125 9.421875 -20 C 10.648438 -19.726562 11.71875 -19.238281 12.625 -18.53125 C 13.539062 -17.832031 14.289062 -16.960938 14.875 -15.921875 C 15.457031 -14.878906 15.863281 -13.722656 16.09375 -12.453125 C 16.34375 -11.046875 16.351562 -9.734375 16.125 -8.515625 C 15.90625 -7.304688 15.46875 -6.222656 14.8125 -5.265625 C 14.164062 -4.316406 13.320312 -3.519531 12.28125 -2.875 C 11.238281 -2.238281 10.023438 -1.796875 8.640625 -1.546875 Z M 12.484375 -11.796875 C 12.316406 -12.679688 12.039062 -13.472656 11.65625 -14.171875 C 11.28125 -14.878906 10.8125 -15.457031 10.25 -15.90625 C 9.6875 -16.363281 9.035156 -16.675781 8.296875 -16.84375 C 7.554688 -17.019531 6.753906 -17.03125 5.890625 -16.875 L 2.765625 -16.3125 L 4.953125 -4.140625 L 8.078125 -4.703125 C 8.960938 -4.859375 9.71875 -5.15625 10.34375 -5.59375 C 10.976562 -6.03125 11.472656 -6.5625 11.828125 -7.1875 C 12.179688 -7.8125 12.414062 -8.519531 12.53125 -9.3125 C 12.65625 -10.101562 12.640625 -10.929688 12.484375 -11.796875 Z M 12.484375 -11.796875 "/></g></g></g><g fill="#000000" fill-opacity="1"><g transform="translate(235.182888, 355.204699)"><g><path d="M 0.28125 -20.125 L 3.296875 -21.25 L 16.546875 -6.171875 L 13.03125 -4.859375 L 9.75 -8.625 L 3.609375 -6.328125 L 3.640625 -1.359375 L 0.109375 -0.046875 Z M 8.25 -10.8125 L 3.234375 -16.8125 L 3.296875 -8.96875 Z M 8.25 -10.8125 "/></g></g></g><g fill="#000000" fill-opacity="1"><g transform="translate(262.885699, 343.681637)"><g><path d="M 5.953125 -21.53125 L 0.78125 -18.5 L 8.640625 -5.046875 L 5.5 -3.21875 L -2.359375 -16.671875 L -7.53125 -13.640625 L -9.140625 -16.390625 L 4.34375 -24.28125 Z M 5.953125 -21.53125 "/></g></g></g><g fill="#000000" fill-opacity="1"><g transform="translate(287.014119, 328.394354)"><g><path d="M 2.28125 -22.21875 L -2.328125 -18.375 L 7.671875 -6.421875 L 4.890625 -4.09375 L -5.109375 -16.046875 L -9.71875 -12.1875 L -11.75 -14.625 L 0.25 -24.65625 Z M 2.28125 -22.21875 "/></g></g></g><g fill="#000000" fill-opacity="1"><g transform="translate(308.399392, 309.281276)"><g><path d="M 3.96875 -9.578125 C 4.519531 -10.234375 4.847656 -10.898438 4.953125 -11.578125 C 5.066406 -12.265625 5.019531 -12.925781 4.8125 -13.5625 C 4.613281 -14.195312 4.28125 -14.804688 3.8125 -15.390625 C 3.351562 -15.972656 2.820312 -16.515625 2.21875 -17.015625 L -5.125 -23.140625 L -2.796875 -25.921875 L 4.546875 -19.796875 C 5.535156 -18.960938 6.363281 -18.066406 7.03125 -17.109375 C 7.695312 -16.160156 8.144531 -15.160156 8.375 -14.109375 C 8.601562 -13.054688 8.570312 -11.972656 8.28125 -10.859375 C 7.988281 -9.742188 7.378906 -8.632812 6.453125 -7.53125 C 5.492188 -6.382812 4.476562 -5.570312 3.40625 -5.09375 C 2.332031 -4.613281 1.257812 -4.398438 0.1875 -4.453125 C -0.882812 -4.503906 -1.945312 -4.78125 -3 -5.28125 C -4.050781 -5.78125 -5.046875 -6.421875 -5.984375 -7.203125 L -13.328125 -13.328125 L -10.984375 -16.125 L -3.640625 -10 C -3.035156 -9.488281 -2.398438 -9.054688 -1.734375 -8.703125 C -1.066406 -8.359375 -0.40625 -8.140625 0.25 -8.046875 C 0.90625 -7.960938 1.550781 -8.035156 2.1875 -8.265625 C 2.832031 -8.492188 3.425781 -8.929688 3.96875 -9.578125 Z M 3.96875 -9.578125 "/></g></g></g><g fill="#000000" fill-opacity="1"><g transform="translate(327.705881, 284.031446)"><g><path d="M 0.796875 -1.3125 L -2.453125 -3.3125 L -0.921875 -5.78125 L 2.328125 -3.78125 Z M 0.796875 -1.3125 "/></g></g></g><g fill="#000000" fill-opacity="1"><g transform="translate(336.717925, 268.552282)"><g><path d="M -8.40625 -4.546875 C -9.445312 -4.992188 -10.398438 -5.628906 -11.265625 -6.453125 C -12.128906 -7.285156 -12.804688 -8.238281 -13.296875 -9.3125 C -13.796875 -10.382812 -14.066406 -11.554688 -14.109375 -12.828125 C -14.148438 -14.097656 -13.878906 -15.410156 -13.296875 -16.765625 C -12.609375 -18.335938 -11.664062 -19.550781 -10.46875 -20.40625 C -9.28125 -21.257812 -8.003906 -21.734375 -6.640625 -21.828125 L -5.984375 -18.46875 C -6.566406 -18.46875 -7.09375 -18.375 -7.5625 -18.1875 C -8.03125 -18 -8.441406 -17.765625 -8.796875 -17.484375 C -9.160156 -17.203125 -9.472656 -16.875 -9.734375 -16.5 C -10.003906 -16.132812 -10.222656 -15.757812 -10.390625 -15.375 C -10.753906 -14.53125 -10.898438 -13.722656 -10.828125 -12.953125 C -10.765625 -12.191406 -10.546875 -11.484375 -10.171875 -10.828125 C -9.804688 -10.171875 -9.328125 -9.585938 -8.734375 -9.078125 C -8.140625 -8.578125 -7.503906 -8.179688 -6.828125 -7.890625 C -6.078125 -7.554688 -5.296875 -7.359375 -4.484375 -7.296875 C -3.679688 -7.242188 -2.914062 -7.320312 -2.1875 -7.53125 C -1.457031 -7.738281 -0.796875 -8.082031 -0.203125 -8.5625 C 0.390625 -9.039062 0.847656 -9.65625 1.171875 -10.40625 C 1.347656 -10.800781 1.476562 -11.226562 1.5625 -11.6875 C 1.644531 -12.144531 1.660156 -12.609375 1.609375 -13.078125 C 1.566406 -13.554688 1.445312 -14.023438 1.25 -14.484375 C 1.0625 -14.953125 0.773438 -15.382812 0.390625 -15.78125 L 3.171875 -17.859375 C 3.703125 -17.296875 4.101562 -16.648438 4.375 -15.921875 C 4.644531 -15.203125 4.8125 -14.453125 4.875 -13.671875 C 4.9375 -12.890625 4.894531 -12.09375 4.75 -11.28125 C 4.613281 -10.46875 4.394531 -9.71875 4.09375 -9.03125 C 3.5625 -7.800781 2.816406 -6.789062 1.859375 -6 C 0.898438 -5.207031 -0.148438 -4.617188 -1.296875 -4.234375 C -2.453125 -3.859375 -3.648438 -3.695312 -4.890625 -3.75 C -6.128906 -3.800781 -7.300781 -4.066406 -8.40625 -4.546875 Z M -8.40625 -4.546875 "/></g></g></g><g fill="#000000" fill-opacity="1"><g transform="translate(347.814089, 240.215822)"><g><path d="M -16.578125 -11.421875 L -15.84375 -14.5625 L 4.0625 -17.1875 L 3.203125 -13.53125 L -1.75 -12.90625 L -3.25 -6.53125 L 0.890625 -3.78125 L 0.03125 -0.125 Z M -4.421875 -12.859375 L -12.1875 -12.046875 L -5.625 -7.71875 Z M -4.421875 -12.859375 "/></g></g></g><g fill="#986d42" fill-opacity="1"><g transform="translate(168.683621, 260.822757)"><g><path d="M 76.25 2.265625 C 118.027344 2.011719 141.179688 -30.953125 141.179688 -66.183594 C 141.179688 -103.429688 119.285156 -127.589844 90.09375 -127.589844 C 70.714844 -127.589844 53.351562 -117.773438 39.761719 -107.707031 L 39.761719 -126.078125 L 37.496094 -127.839844 L 10.066406 -115.761719 L 10.066406 -112.992188 C 16.859375 -109.972656 20.132812 -107.457031 20.132812 -89.839844 L 20.132812 35.988281 C 20.132812 56.621094 17.617188 62.410156 10.066406 64.675781 L 10.066406 67.945312 L 49.828125 67.945312 L 49.828125 64.675781 C 42.027344 62.410156 39.761719 56.621094 39.761719 35.988281 L 39.761719 -8.808594 C 49.324219 -2.515625 62.410156 2.265625 76.25 2.265625 Z M 39.761719 -41.523438 L 39.761719 -103.683594 C 50.332031 -111.734375 62.160156 -119.03125 76.753906 -119.03125 C 111.988281 -119.03125 123.058594 -79.523438 123.058594 -51.589844 C 123.058594 -22.398438 110.726562 -2.515625 84.304688 -2.515625 C 61.65625 -2.515625 39.761719 -24.410156 39.761719 -41.523438 Z M 39.761719 -41.523438 "/></g></g></g><g fill="#139587" fill-opacity="1"><g transform="translate(48.949627, 255.927212)"><g><path d="M 64.675781 2.769531 C 82.542969 3.019531 98.144531 -9.058594 110.476562 -21.894531 L 110.476562 -7.550781 C 110.476562 -2.769531 113.246094 0 118.027344 0 L 140.171875 0 L 140.171875 -3.273438 C 132.371094 -5.535156 130.105469 -11.324219 130.105469 -31.960938 L 130.105469 -201.574219 L 128.09375 -203.335938 L 100.410156 -191.257812 L 100.410156 -188.488281 C 107.203125 -185.46875 110.476562 -182.953125 110.476562 -165.335938 L 110.476562 -117.523438 C 101.667969 -123.058594 90.09375 -127.335938 76.25 -127.335938 C 32.96875 -127.085938 9.058594 -94.875 9.058594 -59.894531 C 9.058594 -24.410156 33.46875 2.515625 64.675781 2.769531 Z M 27.933594 -74.992188 C 27.933594 -101.667969 41.773438 -122.554688 68.449219 -122.554688 C 89.589844 -122.554688 108.210938 -104.4375 110.476562 -88.078125 L 110.476562 -26.421875 C 100.660156 -16.359375 89.085938 -9.5625 76 -9.5625 C 41.773438 -9.5625 27.933594 -45.550781 27.933594 -74.992188 Z M 27.933594 -74.992188 "/></g></g></g></svg>